<svg width="60" height="60" viewBox="0 0 60 60" fill="none" xmlns="http://www.w3.org/2000/svg">
<mask id="mask0_1_6" style="mask-type:alpha" maskUnits="userSpaceOnUse" x="0" y="0" width="60" height="60">
<rect width="60" height="60" rx="17" fill="#C4C4C4"/>
</mask>
<g mask="url(#mask0_1_6)">
<g filter="url(#filter0_f_1_6)">
<circle cx="46.2602" cy="46.9013" r="29.7397" fill="#97CF26"/>
<circle cx="9.04398" cy="12.044" r="25.044" fill="#00AAFF"/>
<circle cx="14.4695" cy="45.7774" r="13.9568" fill="#A169F7"/>
<circle cx="43.6681" cy="16.0015" r="19.5656" fill="#FF6163"/>
</g>
</g>
<g filter="url(#filter1_d_1_6)">
<path d="M24.45 39L22.95 35.22H15.39L13.86 39H9.06L17.13 18.99H21.36L29.25 39H24.45ZM16.74 31.68H21.69L19.23 24.96L16.74 31.68ZM31.4927 18.99H48.3227V39H43.7027V22.89H36.1127V39H31.4927V18.99Z" fill="white"/>
</g>
<defs>
<filter id="filter0_f_1_6" x="-37" y="-34" width="134" height="131.641" filterUnits="userSpaceOnUse" color-interpolation-filters="sRGB">
<feFlood flood-opacity="0" result="BackgroundImageFix"/>
<feBlend mode="normal" in="SourceGraphic" in2="BackgroundImageFix" result="shape"/>
<feGaussianBlur stdDeviation="10.5" result="effect1_foregroundBlur_1_6"/>
</filter>
<filter id="filter1_d_1_6" x="5.06006" y="18.99" width="47.2627" height="28.01" filterUnits="userSpaceOnUse" color-interpolation-filters="sRGB">
<feFlood flood-opacity="0" result="BackgroundImageFix"/>
<feColorMatrix in="SourceAlpha" type="matrix" values="0 0 0 0 0 0 0 0 0 0 0 0 0 0 0 0 0 0 127 0" result="hardAlpha"/>
<feOffset dy="4"/>
<feGaussianBlur stdDeviation="2"/>
<feComposite in2="hardAlpha" operator="out"/>
<feColorMatrix type="matrix" values="0 0 0 0 0 0 0 0 0 0 0 0 0 0 0 0 0 0 0.25 0"/>
<feBlend mode="normal" in2="BackgroundImageFix" result="effect1_dropShadow_1_6"/>
<feBlend mode="normal" in="SourceGraphic" in2="effect1_dropShadow_1_6" result="shape"/>
</filter>
</defs>
</svg>
