<svg width="56" height="56" fill="none" xmlns="http://www.w3.org/2000/svg"><circle cx="27.979" cy="27.979" r="27.979" fill="#40B3E0"/><path d="M37.958 18.491l-3.756 18.936s-.525 1.313-1.97.683l-8.666-6.645-3.152-1.523-5.305-1.786s-.814-.288-.893-.919c-.079-.63.92-.971.92-.971l21.088-8.273s1.734-.762 1.734.499" fill="#fff"/><path d="M22.9 37.214s-.253-.023-.569-1.021c-.315-.998-1.917-6.25-1.917-6.25l12.737-8.09s.736-.446.71 0c0 0 .13.08-.263.447-.394.368-10.006 9.008-10.006 9.008" fill="#D2E5F1"/><path d="M26.889 34.013l-3.428 3.125s-.268.204-.561.076l.656-5.805" fill="#B5CFE4"/></svg>