<svg width="100" height="100" viewBox="0 0 100 100" fill="none" xmlns="http://www.w3.org/2000/svg">
<circle cx="50" cy="50" r="50" fill="#00AAFF"/>
<path d="M53.9695 59.008H46.0335V29.312H53.9695V59.008ZM46.4175 71.424C45.4788 70.4427 45.0095 69.248 45.0095 67.84C45.0095 66.432 45.4788 65.2587 46.4175 64.32C47.3988 63.3387 48.5935 62.848 50.0015 62.848C51.4095 62.848 52.5828 63.3387 53.5215 64.32C54.5028 65.2587 54.9935 66.432 54.9935 67.84C54.9935 69.248 54.5028 70.4427 53.5215 71.424C52.5828 72.3627 51.4095 72.832 50.0015 72.832C48.5935 72.832 47.3988 72.3627 46.4175 71.424Z" fill="white"/>
</svg>
