<?xml version="1.0" encoding="UTF-8"?>
<svg xmlns="http://www.w3.org/2000/svg" xmlns:xlink="http://www.w3.org/1999/xlink" viewBox="0 0 25 25" width="25px" height="25px">
<g id="surface111083712">
<path style=" stroke:none;fill-rule:nonzero;fill:rgb(34.901962%,33.725491%,91.37255%);fill-opacity:1;" d="M 20.96875 4.3125 C 20.636719 4.324219 20.332031 4.5 20.15625 4.78125 L 10.75 19.171875 L 4.65625 13.90625 C 4.394531 13.632812 4.003906 13.535156 3.640625 13.648438 C 3.28125 13.757812 3.011719 14.0625 2.949219 14.433594 C 2.886719 14.804688 3.039062 15.179688 3.34375 15.40625 L 10.3125 21.4375 C 10.53125 21.621094 10.820312 21.707031 11.101562 21.664062 C 11.386719 21.621094 11.640625 21.460938 11.796875 21.21875 L 21.84375 5.875 C 22.058594 5.5625 22.074219 5.15625 21.890625 4.824219 C 21.707031 4.492188 21.347656 4.296875 20.96875 4.3125 Z M 20.96875 4.3125 "/>
</g>
</svg>
